<svg xmlns="http://www.w3.org/2000/svg" xmlns:xlink="http://www.w3.org/1999/xlink">
  <symbol id="icon-github" viewBox="0 0 256 256">
    <path d="M213.7 117c2-8 2.5-17.2 2.5-27.3 0-16-6-28.7-15.7-38.4 1.7-5.5 4-17.6-2.3-33.2 0 0-11-3-36 14-9.6-2.3-20-3.5-30.4-3.5-11.4 0-23 1.5-33.7 4.4-25-17.5-37-14-37-14-7 18.3-2 32-1 35.3-8.3 9.6-14 21.5-14 36 0 10.5 1 19.8 4 28 0 .6 4.4 10 4.7 10.4l1.8 2.6c9.4 14 26 23 53.8 26-4.2 2.4-8.6 7.3-10.4 16-6 3-24.7 9.4-35.8-9.8 0 0-6.2-11.4-18.2-12.3 0 0-11.4-.3-.6 7 0 0 8.3 4 13.6 17.5 0 0 6 23.4 41 16v24s-1 8.7-9 11.5c0 0-5 3 0 5 0 0 21 2 21-16v-26.5s0-10.5 6-14V219s-.8 10.2-6 14.2c0 0-4 6.5 4 4.7 0 0 14.7-2 15.4-20v-43h3.3l.4 43.2c.5 17.5 15.5 19.4 15.5 19.4 8 1.8 4.5-4.7 4.5-4.7-5.3-4-5.5-14.5-5.5-14.5v-43c6 4 5 13.7 5 13.7V216c0 17.8 21.2 16 21.2 16 5-1.7.3-5 .3-5-8-2.8-8.5-11.3-8.5-11.3V181c0-13.5-6-20.6-11.4-24.4 31-3 46.7-12.8 54-28 .7-.5 4-10.8 4.4-11.6zm-82 33.6c-35.3 0-64-5.3-64-39.4 0-8.2 4-15.8 11-22 11.5-10.6 31-5 53-5s41.4-5.6 53 4.8c7 6.3 11 14 11 22.2 0 38.4-28.7 39.4-64 39.4z"/>
    <path d="M97 94c-7 0-13 8.6-13 19 0 10.7 6 19.3 13.3 19.3s13.4-8.6 13.4-19.2c0-10-6-19-13.3-19zm71.5 0c-7.3 0-13.3 8.6-13.3 19 0 10.7 6 19.3 13.3 19.3 7.3 0 13.3-8.6 13.3-19.2 0-10-6-19-13.3-19z"/>
  </symbol>
  <symbol id="icon-bug" viewBox="0 0 256 256">
    <path d="M47.6 84L31 67.5c-3-3-8-3-11.2 0-3 3.2-3 8.2 0 11.3l19 17.8c1.4 1.5 3.4 1 5.5 1h15.4c-11 14-18.2 30.4-20.8 47H12c-4.4 0-8 3.8-8 8.2 0 4.4 3.6 8.3 8 8.3h25.7c0 14 3.6 28 9.7 39h-5.7c-2 0-4 1-5.6 3l-18 19c-3 3-3 8 0 11.4 1.7 1.5 3.8 2.4 5.8 2.4s4-.8 5.6-2.3L45 216h12.8c15.6 19.4 40 32 64.8 33.3V84h-75zM244 144.6h-27.4c-3.4-16.5-12.2-33-22.5-46.8h18c2 0 4 .4 6-1l19-18.5c3-3 3-7.8 0-11-3-3-8-3-11 0L209 84h-75v165.3c25-1.6 49-16.6 64.4-33h13L228 233c1.4 1 3.5 2 5.5 2s4-1 5.8-2.8c3-3.2 3-8.2 0-11.3l-19-19.6c-1.4-1.5-3.4-2.7-5.5-2.7h-6c6-11 9.6-24.8 9.7-38.5h26c4.3 0 8-4 8-8.4s-3.8-8-8-8zM77 73h102c0-19.3-9.6-33.8-24-42.8l10.4-10c3-3.2 3-8 0-11.2-3-3-8-3-11.2 0l-15 15c-3.6-.7-7.4-1.2-11.3-1.2s-8 .5-12 1.3L101 9c-3-3-8-3-11 0-3 3.7-3 8.7 0 11.8l10.3 10c-13.7 8.4-23 23-23 42.2z"/>
  </symbol>
  <symbol id="icon-victory" viewBox="0 0 256 256">
    <path d="M95 164.8c6-12.5 13-26 21.2-41s17.5-29.8 28-44.6c10.3-14.8 18-24.6 22.6-29.5 4.8-4.8 8.8-8.7 12-11.5 3.4-2.8 9.2-5 17.6-6.2 8.4-1.3 14.7-2 19-2 3 0 5.3 1 7 2.6 2 1.8 2.8 4 2.8 7 0 2-.5 4-1.6 5.6-1 1.6-3.3 4-6.6 7-16 14.8-32.7 35.8-50 63-17.4 27.4-31.2 53.8-41.4 79.4-4.8 11.7-8 18.6-9.3 20.6-1.4 2-3.5 4-6.4 5.7-3 1.7-8.8 2.5-17.7 2.5-7 0-11.5-.4-13.4-1.3s-3.6-1.8-4.6-2.7c-1-1-4-5.2-9-12.7-5-8-12.6-17.2-22.3-28-5.5-6.2-8.3-11.4-8.3-15.5 0-6 3.2-11.3 9.6-15.8 6.4-4.5 12-6.7 17-6.7 5.3 0 11 2.2 17 6.5 6.3 4.4 11.8 10.2 16.7 17.5z" stroke-linecap="round" stroke-linejoin="round"/>
  </symbol>
  <symbol id="icon-help" viewBox="0 0 256 256">
    <path d="M128 4a124 124 0 1 0 124 124A124 124 0 0 0 128 4zm3.6 206q-7.5 7.5-19.5 7.5-9.5 0-14.5-5t-5-14q0-12.8 7.5-20.5t19.7-7.7q9.5 0 14.4 5t5 14.2q0 12.8-7.3 20.4zM180 97.5a36.2 36.2 0 0 1-7 11 82.4 82.4 0 0 1-13.4 12q-8.4 6-21 14l-.7 1.3-.7 16.2-2.4 3.3-28.5 4.7-3.3-2-1.6-31.2 1.2-3.6 23-11q12.7-6.5 12.6-14.8t-9-12Q121 81 104 80l-2.8-4.2 13-28 4.3-2a112.3 112.3 0 0 1 25.7 3.6 74 74 0 0 1 20 8.6 42.8 42.8 0 0 1 13.2 12.5A27.8 27.8 0 0 1 182 86a33.2 33.2 0 0 1-2 11.6z"/>
  </symbol>
</svg>